<svg xmlns="http://www.w3.org/2000/svg" xmlns:xlink="http://www.w3.org/1999/xlink" width="3370.38" height="734.251" viewBox="0 0 3370.38 734.251">
  <defs>
    <filter id="路径_1" x="964.789" y="192.181" width="457.94" height="362.994" filterUnits="userSpaceOnUse">
      <feOffset dx="40" dy="40" input="SourceAlpha"/>
      <feGaussianBlur result="blur"/>
      <feFlood flood-color="#d624e6"/>
      <feComposite operator="in" in2="blur"/>
      <feComposite in="SourceGraphic"/>
    </filter>
    <filter id="路径_2" x="1718.014" y="353.239" width="200.271" height="201.936" filterUnits="userSpaceOnUse">
      <feOffset dx="40" dy="40" input="SourceAlpha"/>
      <feGaussianBlur result="blur-2"/>
      <feFlood flood-color="#d624e6"/>
      <feComposite operator="in" in2="blur-2"/>
      <feComposite in="SourceGraphic"/>
    </filter>
    <filter id="路径_3" x="1758.475" y="275.383" width="190.569" height="90.684" filterUnits="userSpaceOnUse">
      <feOffset dx="40" dy="40" input="SourceAlpha"/>
      <feGaussianBlur result="blur-3"/>
      <feFlood flood-color="#d624e6"/>
      <feComposite operator="in" in2="blur-3"/>
      <feComposite in="SourceGraphic"/>
    </filter>
    <filter id="路径_4" x="1898.885" y="284.536" width="426.313" height="270.638" filterUnits="userSpaceOnUse">
      <feOffset dx="40" dy="40" input="SourceAlpha"/>
      <feGaussianBlur result="blur-4"/>
      <feFlood flood-color="#d624e6"/>
      <feComposite operator="in" in2="blur-4"/>
      <feComposite in="SourceGraphic"/>
    </filter>
    <filter id="路径_5" x="2300.678" y="275.383" width="230.878" height="279.792" filterUnits="userSpaceOnUse">
      <feOffset dx="40" dy="40" input="SourceAlpha"/>
      <feGaussianBlur result="blur-5"/>
      <feFlood flood-color="#d624e6"/>
      <feComposite operator="in" in2="blur-5"/>
      <feComposite in="SourceGraphic"/>
    </filter>
    <filter id="路径_6" x="2516.723" y="257.484" width="381.334" height="297.691" filterUnits="userSpaceOnUse">
      <feOffset dx="40" dy="40" input="SourceAlpha"/>
      <feGaussianBlur result="blur-6"/>
      <feFlood flood-color="#d624e6"/>
      <feComposite operator="in" in2="blur-6"/>
      <feComposite in="SourceGraphic"/>
    </filter>
    <filter id="路径_7" x="2876.488" y="190.771" width="493.892" height="364.404" filterUnits="userSpaceOnUse">
      <feOffset dx="40" dy="40" input="SourceAlpha"/>
      <feGaussianBlur result="blur-7"/>
      <feFlood flood-color="#d624e6"/>
      <feComposite operator="in" in2="blur-7"/>
      <feComposite in="SourceGraphic"/>
    </filter>
    <filter id="路径_8" x="1322.883" y="257.484" width="423.365" height="297.691" filterUnits="userSpaceOnUse">
      <feOffset dx="40" dy="40" input="SourceAlpha"/>
      <feGaussianBlur result="blur-8"/>
      <feFlood flood-color="#d624e6"/>
      <feComposite operator="in" in2="blur-8"/>
      <feComposite in="SourceGraphic"/>
    </filter>
    <filter id="路径_9" x="290.81" y="330.843" width="76.869" height="76.869" filterUnits="userSpaceOnUse">
      <feOffset dx="40" dy="40" input="SourceAlpha"/>
      <feGaussianBlur result="blur-9"/>
      <feFlood flood-color="#d624e6"/>
      <feComposite operator="in" in2="blur-9"/>
      <feComposite in="SourceGraphic"/>
    </filter>
    <filter id="路径_10" x="398.594" y="329.922" width="78.718" height="78.717" filterUnits="userSpaceOnUse">
      <feOffset dx="40" dy="40" input="SourceAlpha"/>
      <feGaussianBlur result="blur-10"/>
      <feFlood flood-color="#d624e6"/>
      <feComposite operator="in" in2="blur-10"/>
      <feComposite in="SourceGraphic"/>
    </filter>
    <filter id="路径_11" x="0" y="0" width="812.425" height="734.251" filterUnits="userSpaceOnUse">
      <feOffset dx="40" dy="40" input="SourceAlpha"/>
      <feGaussianBlur result="blur-11"/>
      <feFlood flood-color="#d624e6"/>
      <feComposite operator="in" in2="blur-11"/>
      <feComposite in="SourceGraphic"/>
    </filter>
  </defs>
  <g id="logo" transform="translate(0.294 -1365.391)">
    <g id="组_1" data-name="组 1" transform="translate(964.495 1556.162)">
      <g transform="matrix(1, 0, 0, 1, -964.79, -190.77)" filter="url(#路径_1)">
        <path id="路径_1-2" data-name="路径 1" d="M1446.142,1570.262H1042.394l-14.191,53.847h129.917l-72.109,269.147H1230.2l72.121-269.147h129.621Z" transform="translate(-63.41 -1378.08)" fill="#fff"/>
      </g>
      <g transform="matrix(1, 0, 0, 1, -964.79, -190.77)" filter="url(#路径_2)">
        <path id="路径_2-2" data-name="路径 2" d="M1831.165,1903.891h116.9l43.374-161.936h-116.9Z" transform="translate(-113.15 -1388.72)" fill="#fff"/>
      </g>
      <g transform="matrix(1, 0, 0, 1, -964.79, -190.77)" filter="url(#路径_3)">
        <path id="路径_3-2" data-name="路径 3" d="M1887.541,1658.958l-13.244,50.684H2011.63l13.237-50.684Z" transform="translate(-115.82 -1383.58)" fill="#fff"/>
      </g>
      <g transform="matrix(1, 0, 0, 1, -964.79, -190.77)" filter="url(#路径_4)">
        <path id="路径_4-2" data-name="路径 4" d="M2360.345,1687.665q-47.488-18.949-110.734-18.949H2085.906l-61.927,230.638h131.056l13.606-50.437h32.879c46.883,0,91.043-3.693,129.951-20.709,43.491-19.021,68.851-36.316,76.762-66a51.229,51.229,0,0,0,2.058-14.386C2410.292,1722.711,2395.962,1702.586,2360.345,1687.665Zm-79.457,74.431c-3.349,12.48-9.111,19.948-21.337,28.214-14.6,9.868-28.729,15-46.383,15H2180.29l24.8-92.993h32.879q22.142,0,34.244,12.1,10.047,10.055,10.047,26.027A49.594,49.594,0,0,1,2280.888,1762.1Z" transform="translate(-125.09 -1384.18)" fill="#fff"/>
      </g>
      <g transform="matrix(1, 0, 0, 1, -964.79, -190.77)" filter="url(#路径_5)">
        <path id="路径_5-2" data-name="路径 5" d="M2575.373,1847.379v-1.6l49.76-186.821h-116.9l-55.7,208.514a21.637,21.637,0,0,0-.229,4.334q0,12.793,21.694,20.78,18.035,6.167,40.638,6.164h116.9l11.649-43.611h-51.371Q2575.369,1855.139,2575.373,1847.379Z" transform="translate(-151.63 -1383.58)" fill="#fff"/>
      </g>
      <g transform="matrix(1, 0, 0, 1, -964.79, -190.77)" filter="url(#路径_6)">
        <path id="路径_6-2" data-name="路径 6" d="M2767.58,1645.968c-18.262,5.941-29.671,13.821-33.1,27.374l-51.635,192.948a21.646,21.646,0,0,0-.229,4.334q0,12.793,21.694,20.78,18.033,6.167,40.638,6.164H2955.23l11.642-43.611H2822.122q-16.442,0-16.439-7.76v-1.6l14.655-56.268h163.477l11.876-43.611H2831.985l14.335-51.876q2.507-9.361,21-9.361h144.984l11.643-43.6H2813.442C2797.606,1639.877,2783.111,1641.1,2767.58,1645.968Z" transform="translate(-165.89 -1382.39)" fill="#fff"/>
      </g>
      <g transform="matrix(1, 0, 0, 1, -964.79, -190.77)" filter="url(#路径_7)">
        <path id="路径_7-2" data-name="路径 7" d="M3245.138,1687.709a138.765,138.765,0,0,1,13.471-25.8c17.5-25.722,40.147-38.584,71.692-38.584h175.346l14.381-54.566H3344.681c-64.08,0-120.589,14.251-177.588,43.742-54.971,28.439-85.966,69.2-97.531,111.969a110.584,110.584,0,0,0-3.426,27.4c0,36.532,14.665,77.458,51.305,104.536,35.581,26.294,83.639,36.761,140.417,36.761H3433.2l14.837-54.567H3272.7c-34.854,0-48.794-29.343-48.794-62.526q0-18.723,9.131-51.6A305.965,305.965,0,0,1,3245.138,1687.709Z" transform="translate(-189.65 -1377.99)" fill="#fff"/>
      </g>
      <g transform="matrix(1, 0, 0, 1, -964.79, -190.77)" filter="url(#路径_8)">
        <path id="路径_8-2" data-name="路径 8" d="M1733.263,1651.518q-44.523-11.648-109.138-11.641H1477.392l-67.449,257.691h116.9l21.548-82.526,83.306,82.526h147.26l-110.533-109.134c71.387-10.047,113.848-40.715,123.291-75.272a37.75,37.75,0,0,0,1.595-11.411Q1793.307,1667.731,1733.263,1651.518Zm-72.607,61.644q-3.423,13.479-23.976,22.147a110.626,110.626,0,0,1-39.728,7.307H1567.2l15.473-59.135h29.809a86.973,86.973,0,0,1,34.016,6.621q15.07,6.625,15.073,18.27A11.791,11.791,0,0,1,1660.657,1713.163Z" transform="translate(-87.06 -1382.39)" fill="#fff"/>
      </g>
    </g>
    <g id="组_2" data-name="组 2" transform="translate(-0.294 1365.391)">
      <g transform="matrix(1, 0, 0, 1, 0, 0)" filter="url(#路径_9)">
        <path id="路径_9-2" data-name="路径 9" d="M309.719,1736.515a18.435,18.435,0,1,0,18.435-18.435A18.435,18.435,0,0,0,309.719,1736.515Z" transform="translate(-18.91 -1387.24)" fill="#fff"/>
      </g>
      <g transform="matrix(1, 0, 0, 1, 0, 0)" filter="url(#路径_10)">
        <path id="路径_10-2" data-name="路径 10" d="M443.984,1717.1a19.359,19.359,0,1,0,19.354,19.364A19.36,19.36,0,0,0,443.984,1717.1Z" transform="translate(-26.03 -1387.18)" fill="#fff"/>
      </g>
      <g transform="matrix(1, 0, 0, 1, 0, 0)" filter="url(#路径_11)">
        <path id="路径_11-2" data-name="路径 11" d="M713.422,1848.649l-17.153-42.008a12.821,12.821,0,0,0-23.738-.006l-13.345,32.63-88.024-.024L557.834,1806.6a12.821,12.821,0,0,0-23.737-.006l-13.345,32.63-179.325-.048h-1.112l-14.029,0c-.228,0-.456-.007-.683-.024a111.025,111.025,0,0,1-83.711-48.2c-.861-1.325-1.688-2.665-2.5-4.012h-.105a111.187,111.187,0,0,1-7.739-102.387c10.684-27.085,30.818-48.418,55.7-58.784l14.762-36.1a7.526,7.526,0,0,1,13.933,0l12.271,30.051,29.114.02,41.1.011,12.292-30.055a7.525,7.525,0,0,1,13.932,0l12.275,30.062,224.689.061h3.934a107.8,107.8,0,0,0,86.995-46.742h-.075a122.985,122.985,0,0,0,11.161-20.564,108.587,108.587,0,0,0,8.5-42.852c.012-46.978-26.2-86.988-63.07-102.849L695.049,1372.5a11.376,11.376,0,0,0-21.061-.006l-11.161,27.291-.861.579-93.907-.026-11.382-27.876a11.376,11.376,0,0,0-21.061-.006l-11.4,27.871-191.338-.052c-185.006-.051-336.756,151.3-333.108,336.266C3.3,1915.5,149.444,2059.5,329.252,2059.55l331.148.09,6.848,0a107.805,107.805,0,0,0,85.58-46.742h-.476c9.711-14.543,16.331-30.261,18.689-48.437a116.454,116.454,0,0,0,.969-14.98C772.023,1904.424,747.919,1865.735,713.422,1848.649Zm-35.079-359.538h44.083a9.384,9.384,0,0,1,9.469,8.228,9.122,9.122,0,0,1-9.078,10.016H678.733a9.385,9.385,0,0,1-9.469-8.228A9.122,9.122,0,0,1,678.343,1489.111Zm0,35.663h44.083a9.384,9.384,0,0,1,9.469,8.228,9.122,9.122,0,0,1-9.078,10.016H678.733a9.384,9.384,0,0,1-9.469-8.228A9.122,9.122,0,0,1,678.343,1524.774Zm-160.218-35.663h43.693a9.384,9.384,0,0,1,9.469,8.228,9.122,9.122,0,0,1-9.078,10.016H517.734a9.122,9.122,0,0,1-9.079-10.016A9.384,9.384,0,0,1,518.125,1489.111Zm0,35.663h43.693a9.384,9.384,0,0,1,9.469,8.228,9.122,9.122,0,0,1-9.078,10.016H517.734A9.122,9.122,0,0,1,508.656,1533,9.384,9.384,0,0,1,518.125,1524.774Zm131.868,449.558a9.121,9.121,0,0,1-13.071,1.131l-17.714-15.418c-.024,0-.047.007-.071.007h0c-.025,0-.049-.007-.073-.007l-17.719,15.409a9.125,9.125,0,0,1-13.429-1.609,9.394,9.394,0,0,1,1.759-12.419l17.3-15.047.006-16.077a12.163,12.163,0,0,1,12.162-12.157h0a12.158,12.158,0,0,1,12.158,12.163l0,16.076,17.273,15.035A9.412,9.412,0,0,1,649.993,1974.332Z" transform="translate(0.29 -1365.39)" fill="#fff"/>
      </g>
    </g>
  </g>
</svg>
